<svg width="96" height="25" viewBox="0 0 96 25" fill="none" xmlns="http://www.w3.org/2000/svg">
<path d="M11.2159 0.727272H16.7614V16.8182C16.7538 18.3258 16.3939 19.6439 15.6818 20.7727C14.9697 21.8939 13.9848 22.7652 12.7273 23.3864C11.4773 24.0076 10.0303 24.3182 8.38636 24.3182C6.93182 24.3182 5.60985 24.0644 4.42045 23.5568C3.23864 23.0492 2.29545 22.2614 1.59091 21.1932C0.893939 20.125 0.549242 18.7576 0.556818 17.0909H6.15909C6.18182 17.6894 6.29545 18.2008 6.5 18.625C6.71212 19.0417 7.00379 19.3561 7.375 19.5682C7.74621 19.7803 8.18939 19.8864 8.70455 19.8864C9.24242 19.8864 9.69697 19.7727 10.0682 19.5455C10.4394 19.3106 10.7197 18.9659 10.9091 18.5114C11.1061 18.0568 11.2083 17.4924 11.2159 16.8182V0.727272ZM25.9176 0.727272V24H20.2926V0.727272H25.9176ZM29.4489 24V0.727272H39.0625C40.8049 0.727272 42.3087 1.06818 43.5739 1.75C44.8466 2.42424 45.8277 3.36742 46.517 4.57954C47.2064 5.78409 47.5511 7.18561 47.5511 8.78409C47.5511 10.3902 47.1989 11.7955 46.4943 13C45.7973 14.197 44.8011 15.125 43.5057 15.7841C42.2102 16.4432 40.6723 16.7727 38.892 16.7727H32.9602V12.3409H37.8466C38.6951 12.3409 39.4034 12.1932 39.9716 11.8977C40.5473 11.6023 40.983 11.1894 41.2784 10.6591C41.5739 10.1212 41.7216 9.49621 41.7216 8.78409C41.7216 8.06439 41.5739 7.44318 41.2784 6.92045C40.983 6.39015 40.5473 5.98106 39.9716 5.69318C39.3958 5.4053 38.6875 5.26136 37.8466 5.26136H35.0739V24H29.4489ZM50.3239 24V0.727272H55.9489V10.0682H65.1193V0.727272H70.733V24H65.1193V14.6477H55.9489V24H50.3239ZM73.1023 0.727272H79.3864L84.3068 10.4659H84.5114L89.4318 0.727272H95.7159L87.2045 16.2273V24H81.6136V16.2273L73.1023 0.727272Z" fill="black"/>
</svg>
